Genre:Adventure | Comedy | Family | Fantasy
Language:English
IMDb:http://www.imdb.com/title/tt0493949/
Source:.1080p Bluray AVC DTSHD MA 5.1 
Subtitles:Romana

General
Complete name :Ramona.and.Beezus.2010.720p.BRRip.H264.Feel-Free
Format : MPEG-4
Format profile : Base Media
Codec ID : isom
File size : 1.30 GiB
Duration : 1h 43mn
Overall bit rate : 1 801 Kbps
Video #1
Codec ID : avc1
Codec ID/Info : Advanced Video Coding
Duration : 1h 43mn
Bit rate mode : Variable
Bit rate : 1 476 Kbps
Width : 1 280 pixels
Height : 534 pixels
Display aspect ratio : 2.35:1
Frame rate mode : Constant
Frame rate : 23.976 fps
Resolution : 24 bits
Colorimetry : 4:2:0
Scan type : Progressive
Bits/(Pixel*Frame) : 0.090
Stream size : 1.07 GiB (82%)
Audio #2
ID : 2
Format : AAC
Format/Info : Advanced Audio Codec
Format version : Version 4
Format profile : LC
Format settings, SBR : No
Codec ID : 40
Duration : 1h 43mn
Bit rate mode : Variable
Bit rate : 320 Kbps
Channel(s) : 6 channels
Channel positions : Front: L C R, Rear: L R, LFE
Sampling rate : 48.0 KHz
Resolution : 16 bits
Stream size : 237 MiB (18%)

Plot:
Follows the misadventures of young grade schooler Ramona Quimby from Beverly Cleary's popular children's book series.







================================== 
http://thepiratebay.org/user/hiest
==================================








Screenshots:
 
http://img227.imageshack.us/img227/7389/ramonaandbeezus2010720p.jpg
 
http://img835.imageshack.us/img835/7389/ramonaandbeezus2010720p.jpg
 
http://img808.imageshack.us/img808/7389/ramonaandbeezus2010720p.jpg
 
http://img168.imageshack.us/img168/7389/ramonaandbeezus2010720p.jpg
 
http://img215.imageshack.us/img215/7389/ramonaandbeezus2010720p.jpg



